<svg width="512" height="512" viewBox="0 0 512 512" fill="none" xmlns="http://www.w3.org/2000/svg">
<g clip-path="url(#clip0_415_2)">
<rect width="512" height="512" rx="50" fill="#FAFAFA"/>
<path d="M259.2 417.15C236.1 417.15 215.4 413.4 197.1 405.9C178.8 398.4 164.1 387.3 153 372.6C142.2 357.9 136.5 340.2 135.9 319.5H217.8C219 331.2 223.05 340.2 229.95 346.5C236.85 352.5 245.85 355.5 256.95 355.5C268.35 355.5 277.35 352.95 283.95 347.85C290.55 342.45 293.85 335.1 293.85 325.8C293.85 318 291.15 311.55 285.75 306.45C280.65 301.35 274.2 297.15 266.4 293.85C258.9 290.55 248.1 286.8 234 282.6C213.6 276.3 196.95 270 184.05 263.7C171.15 257.4 160.05 248.1 150.75 235.8C141.45 223.5 136.8 207.45 136.8 187.65C136.8 158.25 147.45 135.3 168.75 118.8C190.05 102 217.8 93.6 252 93.6C286.8 93.6 314.85 102 336.15 118.8C357.45 135.3 368.85 158.4 370.35 188.1H287.1C286.5 177.9 282.75 169.95 275.85 164.25C268.95 158.25 260.1 155.25 249.3 155.25C240 155.25 232.5 157.8 226.8 162.9C221.1 167.7 218.25 174.75 218.25 184.05C218.25 194.25 223.05 202.2 232.65 207.9C242.25 213.6 257.25 219.75 277.65 226.35C298.05 233.25 314.55 239.85 327.15 246.15C340.05 252.45 351.15 261.6 360.45 273.6C369.75 285.6 374.4 301.05 374.4 319.95C374.4 337.95 369.75 354.3 360.45 369C351.45 383.7 338.25 395.4 320.85 404.1C303.45 412.8 282.9 417.15 259.2 417.15Z" fill="url(#paint0_linear_415_2)"/>
</g>
<defs>
<linearGradient id="paint0_linear_415_2" x1="128.345" y1="75.9375" x2="429.796" y2="373.797" gradientUnits="userSpaceOnUse">
<stop stop-color="#2563EB"/>
<stop offset="1" stop-color="#14B8A6"/>
</linearGradient>
<clipPath id="clip0_415_2">
<rect width="512" height="512" rx="50" fill="white"/>
</clipPath>
</defs>
</svg>
